<svg width="379" height="54" viewBox="0 0 379 54" fill="none" xmlns="http://www.w3.org/2000/svg">
<g filter="url(#filter0_i_2_2)">
<path d="M2.38419e-06 52.272V1.872H16.632C20.088 1.872 23.064 2.4 25.56 3.456C28.104 4.512 30.072 6.096 31.464 8.208C32.856 10.272 33.552 12.864 33.552 15.984C33.552 18.144 33.024 20.088 31.968 21.816C30.96 23.544 29.52 24.984 27.648 26.136C30.096 27.336 31.968 28.944 33.264 30.96C34.56 32.976 35.208 35.376 35.208 38.16C35.208 41.136 34.536 43.68 33.192 45.792C31.848 47.904 29.952 49.512 27.504 50.616C25.056 51.72 22.152 52.272 18.792 52.272H2.38419e-06ZM8.208 44.784H18.144C20.784 44.784 22.872 44.136 24.408 42.84C25.944 41.544 26.712 39.792 26.712 37.584C26.712 35.184 25.848 33.312 24.12 31.968C22.44 30.624 20.064 29.952 16.992 29.952H8.208V44.784ZM8.208 23.04H17.352C19.752 23.04 21.624 22.416 22.968 21.168C24.36 19.872 25.056 18.096 25.056 15.84C25.056 13.536 24.264 11.784 22.68 10.584C21.144 9.336 18.984 8.712 16.2 8.712H8.208V23.04ZM52.6539 53.136C49.0539 53.136 45.8379 52.344 43.0059 50.76C40.2219 49.128 38.0379 46.896 36.4539 44.064C34.8699 41.232 34.0779 37.968 34.0779 34.272C34.0779 30.576 34.8459 27.312 36.3819 24.48C37.9659 21.648 40.1499 19.44 42.9339 17.856C45.7179 16.224 48.9099 15.408 52.5099 15.408C56.1099 15.408 59.3019 16.224 62.0859 17.856C64.8699 19.44 67.0299 21.648 68.5659 24.48C70.1499 27.312 70.9419 30.576 70.9419 34.272C70.9419 37.968 70.1739 41.232 68.6379 44.064C67.1019 46.896 64.9419 49.128 62.1579 50.76C59.3739 52.344 56.2059 53.136 52.6539 53.136ZM52.6539 45.72C54.6219 45.72 56.3739 45.24 57.9099 44.28C59.4459 43.272 60.6459 41.928 61.5099 40.248C62.3739 38.52 62.8059 36.528 62.8059 34.272C62.8059 32.016 62.3499 30.048 61.4379 28.368C60.5739 26.64 59.3739 25.296 57.8379 24.336C56.3019 23.328 54.5259 22.824 52.5099 22.824C50.4939 22.824 48.7179 23.304 47.1819 24.264C45.6459 25.224 44.4459 26.568 43.5819 28.296C42.7179 30.024 42.2859 32.016 42.2859 34.272C42.2859 36.528 42.7179 38.52 43.5819 40.248C44.4939 41.928 45.7179 43.272 47.2539 44.28C48.8379 45.24 50.6379 45.72 52.6539 45.72ZM84.5539 53.136C82.1539 53.136 79.9459 52.776 77.9299 52.056C75.9139 51.336 74.1859 50.328 72.7459 49.032C71.3059 47.688 70.2019 46.128 69.4339 44.352L76.4179 41.256C77.1379 42.6 78.1939 43.728 79.5859 44.64C81.0259 45.552 82.6099 46.008 84.3379 46.008C86.2099 46.008 87.6979 45.696 88.8019 45.072C89.9539 44.4 90.5299 43.488 90.5299 42.336C90.5299 41.232 90.0979 40.392 89.2339 39.816C88.3699 39.192 87.1459 38.688 85.5619 38.304L82.1779 37.368C78.7699 36.504 76.1059 35.136 74.1859 33.264C72.2659 31.344 71.3059 29.16 71.3059 26.712C71.3059 23.112 72.4579 20.328 74.7619 18.36C77.1139 16.392 80.4739 15.408 84.8419 15.408C87.0499 15.408 89.0659 15.744 90.8899 16.416C92.7619 17.04 94.3699 17.952 95.7139 19.152C97.0579 20.304 97.9939 21.672 98.5219 23.256L91.8259 26.28C91.3459 25.08 90.4339 24.168 89.0899 23.544C87.7459 22.872 86.2579 22.536 84.6259 22.536C82.9939 22.536 81.7219 22.896 80.8099 23.616C79.8979 24.288 79.4419 25.248 79.4419 26.496C79.4419 27.216 79.8499 27.888 80.6659 28.512C81.4819 29.088 82.6579 29.568 84.1939 29.952L88.4419 30.96C90.7939 31.536 92.7139 32.448 94.2019 33.696C95.6899 34.896 96.7939 36.264 97.5139 37.8C98.2339 39.288 98.5939 40.8 98.5939 42.336C98.5939 44.496 97.9699 46.392 96.7219 48.024C95.5219 49.656 93.8659 50.928 91.7539 51.84C89.6419 52.704 87.2419 53.136 84.5539 53.136ZM111.543 53.136C109.143 53.136 106.935 52.776 104.919 52.056C102.903 51.336 101.175 50.328 99.7346 49.032C98.2946 47.688 97.1906 46.128 96.4226 44.352L103.407 41.256C104.127 42.6 105.183 43.728 106.575 44.64C108.015 45.552 109.599 46.008 111.327 46.008C113.199 46.008 114.687 45.696 115.791 45.072C116.943 44.4 117.519 43.488 117.519 42.336C117.519 41.232 117.087 40.392 116.223 39.816C115.359 39.192 114.135 38.688 112.551 38.304L109.167 37.368C105.759 36.504 103.095 35.136 101.175 33.264C99.2546 31.344 98.2946 29.16 98.2946 26.712C98.2946 23.112 99.4466 20.328 101.751 18.36C104.103 16.392 107.463 15.408 111.831 15.408C114.039 15.408 116.055 15.744 117.879 16.416C119.751 17.04 121.359 17.952 122.703 19.152C124.047 20.304 124.983 21.672 125.511 23.256L118.815 26.28C118.335 25.08 117.423 24.168 116.079 23.544C114.735 22.872 113.247 22.536 111.615 22.536C109.983 22.536 108.711 22.896 107.799 23.616C106.887 24.288 106.431 25.248 106.431 26.496C106.431 27.216 106.839 27.888 107.655 28.512C108.471 29.088 109.647 29.568 111.183 29.952L115.431 30.96C117.783 31.536 119.703 32.448 121.191 33.696C122.679 34.896 123.783 36.264 124.503 37.8C125.223 39.288 125.583 40.8 125.583 42.336C125.583 44.496 124.959 46.392 123.711 48.024C122.511 49.656 120.855 50.928 118.743 51.84C116.631 52.704 114.231 53.136 111.543 53.136ZM126.002 52.272V16.272H133.994V52.272H126.002ZM130.034 9.432C128.738 9.432 127.61 8.976 126.65 8.064C125.738 7.104 125.282 5.976 125.282 4.68C125.282 3.384 125.738 2.28 126.65 1.368C127.61 0.456 128.738 4.76837e-07 130.034 4.76837e-07C131.33 4.76837e-07 132.434 0.456 133.346 1.368C134.306 2.28 134.786 3.384 134.786 4.68C134.786 5.976 134.306 7.104 133.346 8.064C132.434 8.976 131.33 9.432 130.034 9.432ZM137.018 52.272V16.272H144.578L145.082 22.896V52.272H137.018ZM161.426 52.272V33.84H169.49V52.272H161.426ZM161.426 33.84C161.426 30.96 161.09 28.752 160.418 27.216C159.794 25.632 158.882 24.528 157.682 23.904C156.53 23.28 155.162 22.968 153.578 22.968C150.89 22.92 148.802 23.808 147.314 25.632C145.826 27.456 145.082 30.072 145.082 33.48H142.058C142.058 29.688 142.61 26.448 143.714 23.76C144.818 21.024 146.402 18.96 148.466 17.568C150.53 16.128 152.978 15.408 155.81 15.408C158.69 15.408 161.138 15.984 163.154 17.136C165.218 18.288 166.778 20.088 167.834 22.536C168.938 24.936 169.49 28.08 169.49 31.968V33.84H161.426ZM172.69 52.272V1.872H189.322C192.778 1.872 195.754 2.4 198.25 3.456C200.794 4.512 202.762 6.096 204.154 8.208C205.546 10.272 206.242 12.864 206.242 15.984C206.242 18.144 205.714 20.088 204.658 21.816C203.65 23.544 202.21 24.984 200.338 26.136C202.786 27.336 204.658 28.944 205.954 30.96C207.25 32.976 207.898 35.376 207.898 38.16C207.898 41.136 207.226 43.68 205.882 45.792C204.538 47.904 202.642 49.512 200.194 50.616C197.746 51.72 194.842 52.272 191.482 52.272H172.69ZM180.898 44.784H190.834C193.474 44.784 195.562 44.136 197.098 42.84C198.634 41.544 199.402 39.792 199.402 37.584C199.402 35.184 198.538 33.312 196.81 31.968C195.13 30.624 192.754 29.952 189.682 29.952H180.898V44.784ZM180.898 23.04H190.042C192.442 23.04 194.314 22.416 195.658 21.168C197.05 19.872 197.746 18.096 197.746 15.84C197.746 13.536 196.954 11.784 195.37 10.584C193.834 9.336 191.674 8.712 188.89 8.712H180.898V23.04ZM230.744 52.272L230.384 45.504V33.768C230.384 31.32 230.12 29.28 229.592 27.648C229.112 25.968 228.296 24.696 227.144 23.832C226.04 22.92 224.552 22.464 222.68 22.464C220.952 22.464 219.44 22.824 218.144 23.544C216.848 24.264 215.744 25.392 214.832 26.928L207.776 24.336C208.544 22.752 209.552 21.288 210.8 19.944C212.096 18.552 213.704 17.448 215.624 16.632C217.592 15.816 219.944 15.408 222.68 15.408C226.184 15.408 229.112 16.104 231.464 17.496C233.816 18.84 235.544 20.784 236.648 23.328C237.8 25.872 238.376 28.944 238.376 32.544L238.16 52.272H230.744ZM220.376 53.136C216.056 53.136 212.696 52.176 210.296 50.256C207.944 48.336 206.768 45.624 206.768 42.12C206.768 38.376 208.016 35.52 210.512 33.552C213.056 31.584 216.584 30.6 221.096 30.6H230.744V36.792H223.688C220.472 36.792 218.216 37.248 216.92 38.16C215.624 39.024 214.976 40.272 214.976 41.904C214.976 43.296 215.528 44.4 216.632 45.216C217.784 45.984 219.368 46.368 221.384 46.368C223.208 46.368 224.792 45.96 226.136 45.144C227.48 44.328 228.512 43.248 229.232 41.904C230 40.56 230.384 39.048 230.384 37.368H232.76C232.76 42.264 231.776 46.128 229.808 48.96C227.84 51.744 224.696 53.136 220.376 53.136ZM253.166 53.136C250.766 53.136 248.558 52.776 246.542 52.056C244.526 51.336 242.798 50.328 241.358 49.032C239.918 47.688 238.814 46.128 238.046 44.352L245.03 41.256C245.75 42.6 246.806 43.728 248.198 44.64C249.638 45.552 251.222 46.008 252.95 46.008C254.822 46.008 256.31 45.696 257.414 45.072C258.566 44.4 259.142 43.488 259.142 42.336C259.142 41.232 258.71 40.392 257.846 39.816C256.982 39.192 255.758 38.688 254.174 38.304L250.79 37.368C247.382 36.504 244.718 35.136 242.798 33.264C240.878 31.344 239.918 29.16 239.918 26.712C239.918 23.112 241.07 20.328 243.374 18.36C245.726 16.392 249.086 15.408 253.454 15.408C255.662 15.408 257.678 15.744 259.502 16.416C261.374 17.04 262.982 17.952 264.326 19.152C265.67 20.304 266.606 21.672 267.134 23.256L260.438 26.28C259.958 25.08 259.046 24.168 257.702 23.544C256.358 22.872 254.87 22.536 253.238 22.536C251.606 22.536 250.334 22.896 249.422 23.616C248.51 24.288 248.054 25.248 248.054 26.496C248.054 27.216 248.462 27.888 249.278 28.512C250.094 29.088 251.27 29.568 252.806 29.952L257.054 30.96C259.406 31.536 261.326 32.448 262.814 33.696C264.302 34.896 265.406 36.264 266.126 37.8C266.846 39.288 267.206 40.8 267.206 42.336C267.206 44.496 266.582 46.392 265.334 48.024C264.134 49.656 262.478 50.928 260.366 51.84C258.254 52.704 255.854 53.136 253.166 53.136ZM274.825 42.192L269.929 36.648L288.649 16.272H298.369L274.825 42.192ZM267.121 52.272V1.872H275.185V52.272H267.121ZM290.017 52.272L277.345 33.624L282.601 28.008L299.593 52.272H290.017ZM312.486 53.136C308.982 53.136 305.862 52.344 303.126 50.76C300.438 49.128 298.302 46.896 296.718 44.064C295.182 41.232 294.414 37.968 294.414 34.272C294.414 30.576 295.206 27.312 296.79 24.48C298.374 21.648 300.534 19.44 303.27 17.856C306.054 16.224 309.222 15.408 312.774 15.408C315.99 15.408 318.894 16.248 321.486 17.928C324.078 19.56 326.118 21.936 327.606 25.056C329.142 28.176 329.91 31.896 329.91 36.216H301.614L302.694 35.208C302.694 37.416 303.174 39.336 304.134 40.968C305.094 42.552 306.366 43.776 307.95 44.64C309.534 45.504 311.286 45.936 313.206 45.936C315.414 45.936 317.238 45.456 318.678 44.496C320.118 43.488 321.246 42.192 322.062 40.608L329.19 43.632C328.182 45.552 326.886 47.232 325.302 48.672C323.766 50.112 321.918 51.216 319.758 51.984C317.646 52.752 315.222 53.136 312.486 53.136ZM303.198 31.032L302.046 30.024H322.35L321.27 31.032C321.27 29.064 320.838 27.456 319.974 26.208C319.11 24.912 318.006 23.952 316.662 23.328C315.366 22.656 313.998 22.32 312.558 22.32C311.118 22.32 309.678 22.656 308.238 23.328C306.798 23.952 305.598 24.912 304.638 26.208C303.678 27.456 303.198 29.064 303.198 31.032ZM343.934 53.136C340.142 53.136 337.238 52.2 335.222 50.328C333.254 48.408 332.27 45.672 332.27 42.12V5.04H340.262V40.608C340.262 42.288 340.646 43.56 341.414 44.424C342.23 45.288 343.406 45.72 344.942 45.72C345.422 45.72 345.95 45.624 346.526 45.432C347.102 45.24 347.75 44.88 348.47 44.352L351.422 50.472C350.174 51.336 348.926 51.984 347.678 52.416C346.43 52.896 345.182 53.136 343.934 53.136ZM326.294 23.184V16.272H349.982V23.184H326.294ZM364.496 53.136C362.096 53.136 359.888 52.776 357.872 52.056C355.856 51.336 354.128 50.328 352.688 49.032C351.248 47.688 350.144 46.128 349.376 44.352L356.36 41.256C357.08 42.6 358.136 43.728 359.528 44.64C360.968 45.552 362.552 46.008 364.28 46.008C366.152 46.008 367.64 45.696 368.744 45.072C369.896 44.4 370.472 43.488 370.472 42.336C370.472 41.232 370.04 40.392 369.176 39.816C368.312 39.192 367.088 38.688 365.504 38.304L362.12 37.368C358.712 36.504 356.048 35.136 354.128 33.264C352.208 31.344 351.248 29.16 351.248 26.712C351.248 23.112 352.4 20.328 354.704 18.36C357.056 16.392 360.416 15.408 364.784 15.408C366.992 15.408 369.008 15.744 370.832 16.416C372.704 17.04 374.312 17.952 375.656 19.152C377 20.304 377.936 21.672 378.464 23.256L371.768 26.28C371.288 25.08 370.376 24.168 369.032 23.544C367.688 22.872 366.2 22.536 364.568 22.536C362.936 22.536 361.664 22.896 360.752 23.616C359.84 24.288 359.384 25.248 359.384 26.496C359.384 27.216 359.792 27.888 360.608 28.512C361.424 29.088 362.6 29.568 364.136 29.952L368.384 30.96C370.736 31.536 372.656 32.448 374.144 33.696C375.632 34.896 376.736 36.264 377.456 37.8C378.176 39.288 378.536 40.8 378.536 42.336C378.536 44.496 377.912 46.392 376.664 48.024C375.464 49.656 373.808 50.928 371.696 51.84C369.584 52.704 367.184 53.136 364.496 53.136Z" fill="#002684"/>
</g>
<defs>
<filter id="filter0_i_2_2" x="0" y="0" width="379.536" height="55.136" filterUnits="userSpaceOnUse" color-interpolation-filters="sRGB">
<feFlood flood-opacity="0" result="BackgroundImageFix"/>
<feBlend mode="normal" in="SourceGraphic" in2="BackgroundImageFix" result="shape"/>
<feColorMatrix in="SourceAlpha" type="matrix" values="0 0 0 0 0 0 0 0 0 0 0 0 0 0 0 0 0 0 127 0" result="hardAlpha"/>
<feOffset dx="1" dy="2"/>
<feGaussianBlur stdDeviation="1.4"/>
<feComposite in2="hardAlpha" operator="arithmetic" k2="-1" k3="1"/>
<feColorMatrix type="matrix" values="0 0 0 0 0 0 0 0 0 0 0 0 0 0 0 0 0 0 0.25 0"/>
<feBlend mode="normal" in2="shape" result="effect1_innerShadow_2_2"/>
</filter>
</defs>
</svg>
